<svg width="25" height="24" viewBox="0 0 25 24" fill="none" xmlns="http://www.w3.org/2000/svg">
<path d="M9.5 2H15.5C20.5 2 22.5 4 22.5 9V15C22.5 20 20.5 22 15.5 22H9.5C4.5 22 2.5 20 2.5 15V9C2.5 4 4.5 2 9.5 2Z" stroke="#C1C1C1" stroke-width="1.5" stroke-linecap="round" stroke-linejoin="round"/>
<path d="M9.07007 15.27L15.61 8.72998" stroke="#C1C1C1" stroke-width="1.5" stroke-linecap="round" stroke-linejoin="round"/>
<path d="M9.48001 10.3699C10.1593 10.3699 10.71 9.81923 10.71 9.13992C10.71 8.46061 10.1593 7.90991 9.48001 7.90991C8.8007 7.90991 8.25 8.46061 8.25 9.13992C8.25 9.81923 8.8007 10.3699 9.48001 10.3699Z" stroke="#C1C1C1" stroke-width="1.5" stroke-linecap="round" stroke-linejoin="round"/>
<path d="M16.02 16.0899C16.6993 16.0899 17.25 15.5392 17.25 14.8599C17.25 14.1806 16.6993 13.6299 16.02 13.6299C15.3407 13.6299 14.79 14.1806 14.79 14.8599C14.79 15.5392 15.3407 16.0899 16.02 16.0899Z" stroke="#C1C1C1" stroke-width="1.5" stroke-linecap="round" stroke-linejoin="round"/>
</svg>
